<mxfile host="app.diagrams.net" agent="Mozilla/5.0 (Windows NT 10.0; Win64; x64) AppleWebKit/537.36 (KHTML, like Gecko) Chrome/133.0.0.0 Safari/537.36" version="26.1.0">
  <diagram id="C5RBs43oDa-KdzZeNtuy" name="Page-1">
    <mxGraphModel grid="1" page="1" gridSize="10" guides="1" tooltips="1" connect="1" arrows="1" fold="1" pageScale="1" pageWidth="827" pageHeight="1169" math="0" shadow="0">
      <root>
        <mxCell id="WIyWlLk6GJQsqaUBKTNV-0" />
        <mxCell id="WIyWlLk6GJQsqaUBKTNV-1" parent="WIyWlLk6GJQsqaUBKTNV-0" />
        <mxCell id="iXmqzpFQKqinNQqxrl1--34" style="edgeStyle=orthogonalEdgeStyle;rounded=0;orthogonalLoop=1;jettySize=auto;html=1;" edge="1" parent="WIyWlLk6GJQsqaUBKTNV-1" source="iXmqzpFQKqinNQqxrl1--1" target="iXmqzpFQKqinNQqxrl1--32">
          <mxGeometry relative="1" as="geometry" />
        </mxCell>
        <mxCell id="iXmqzpFQKqinNQqxrl1--1" value="&lt;p&gt;histograms.py&lt;/p&gt;" style="ellipse;whiteSpace=wrap;html=1;" vertex="1" parent="WIyWlLk6GJQsqaUBKTNV-1">
          <mxGeometry x="39.96" y="10" width="120" height="70" as="geometry" />
        </mxCell>
        <mxCell id="C3z-Kls5U324keOWxkMt-1" value="" style="edgeStyle=orthogonalEdgeStyle;rounded=0;orthogonalLoop=1;jettySize=auto;html=1;" edge="1" parent="WIyWlLk6GJQsqaUBKTNV-1" source="iXmqzpFQKqinNQqxrl1--2" target="C3z-Kls5U324keOWxkMt-0">
          <mxGeometry relative="1" as="geometry" />
        </mxCell>
        <mxCell id="iXmqzpFQKqinNQqxrl1--2" value="Define CSVs" style="shape=parallelogram;perimeter=parallelogramPerimeter;whiteSpace=wrap;html=1;fixedSize=1;" vertex="1" parent="WIyWlLk6GJQsqaUBKTNV-1">
          <mxGeometry x="39.96" y="220" width="120" height="60" as="geometry" />
        </mxCell>
        <mxCell id="iXmqzpFQKqinNQqxrl1--33" style="edgeStyle=orthogonalEdgeStyle;rounded=0;orthogonalLoop=1;jettySize=auto;html=1;entryX=0.5;entryY=0;entryDx=0;entryDy=0;" edge="1" parent="WIyWlLk6GJQsqaUBKTNV-1" source="iXmqzpFQKqinNQqxrl1--32" target="iXmqzpFQKqinNQqxrl1--2">
          <mxGeometry relative="1" as="geometry" />
        </mxCell>
        <mxCell id="iXmqzpFQKqinNQqxrl1--32" value="&lt;font face=&quot;Helvetica&quot;&gt;import pandas&lt;/font&gt;" style="shape=parallelogram;perimeter=parallelogramPerimeter;whiteSpace=wrap;html=1;fixedSize=1;" vertex="1" parent="WIyWlLk6GJQsqaUBKTNV-1">
          <mxGeometry x="39.96" y="120" width="120" height="60" as="geometry" />
        </mxCell>
        <mxCell id="mG5YyNLUCqAut8_NGiAm-7" value="" style="edgeStyle=orthogonalEdgeStyle;rounded=0;orthogonalLoop=1;jettySize=auto;html=1;" edge="1" parent="WIyWlLk6GJQsqaUBKTNV-1" source="ebi25rhOZYfi02CDMm35-2" target="mG5YyNLUCqAut8_NGiAm-6">
          <mxGeometry relative="1" as="geometry" />
        </mxCell>
        <mxCell id="mG5YyNLUCqAut8_NGiAm-27" value="finished" style="edgeStyle=orthogonalEdgeStyle;rounded=0;orthogonalLoop=1;jettySize=auto;html=1;" edge="1" parent="WIyWlLk6GJQsqaUBKTNV-1" source="ebi25rhOZYfi02CDMm35-2" target="mG5YyNLUCqAut8_NGiAm-26">
          <mxGeometry relative="1" as="geometry" />
        </mxCell>
        <mxCell id="C3z-Kls5U324keOWxkMt-10" value="finished" style="edgeStyle=orthogonalEdgeStyle;rounded=0;orthogonalLoop=1;jettySize=auto;html=1;" edge="1" parent="WIyWlLk6GJQsqaUBKTNV-1" source="ebi25rhOZYfi02CDMm35-2" target="C3z-Kls5U324keOWxkMt-8">
          <mxGeometry relative="1" as="geometry" />
        </mxCell>
        <mxCell id="ebi25rhOZYfi02CDMm35-2" value="Loop&lt;div&gt;Through&lt;br&gt;Years&lt;/div&gt;" style="rhombus;whiteSpace=wrap;html=1;" vertex="1" parent="WIyWlLk6GJQsqaUBKTNV-1">
          <mxGeometry x="200" y="410" width="80" height="80" as="geometry" />
        </mxCell>
        <mxCell id="mG5YyNLUCqAut8_NGiAm-9" value="" style="edgeStyle=orthogonalEdgeStyle;rounded=0;orthogonalLoop=1;jettySize=auto;html=1;" edge="1" parent="WIyWlLk6GJQsqaUBKTNV-1" source="mG5YyNLUCqAut8_NGiAm-6" target="mG5YyNLUCqAut8_NGiAm-8">
          <mxGeometry relative="1" as="geometry" />
        </mxCell>
        <mxCell id="mG5YyNLUCqAut8_NGiAm-6" value="Read CSV" style="shape=parallelogram;perimeter=parallelogramPerimeter;whiteSpace=wrap;html=1;fixedSize=1;" vertex="1" parent="WIyWlLk6GJQsqaUBKTNV-1">
          <mxGeometry x="320" y="420" width="120" height="60" as="geometry" />
        </mxCell>
        <mxCell id="mG5YyNLUCqAut8_NGiAm-11" value="exists" style="edgeStyle=orthogonalEdgeStyle;rounded=0;orthogonalLoop=1;jettySize=auto;html=1;" edge="1" parent="WIyWlLk6GJQsqaUBKTNV-1" source="mG5YyNLUCqAut8_NGiAm-8" target="mG5YyNLUCqAut8_NGiAm-10">
          <mxGeometry relative="1" as="geometry" />
        </mxCell>
        <mxCell id="C3z-Kls5U324keOWxkMt-12" value="" style="edgeStyle=orthogonalEdgeStyle;rounded=0;orthogonalLoop=1;jettySize=auto;html=1;entryX=1;entryY=0.5;entryDx=0;entryDy=0;" edge="1" parent="WIyWlLk6GJQsqaUBKTNV-1" source="mG5YyNLUCqAut8_NGiAm-8" target="mG5YyNLUCqAut8_NGiAm-26">
          <mxGeometry relative="1" as="geometry">
            <Array as="points">
              <mxPoint x="520" y="250" />
            </Array>
          </mxGeometry>
        </mxCell>
        <mxCell id="C3z-Kls5U324keOWxkMt-13" value="error" style="edgeLabel;html=1;align=center;verticalAlign=middle;resizable=0;points=[];" connectable="0" vertex="1" parent="C3z-Kls5U324keOWxkMt-12">
          <mxGeometry x="-0.6737" y="2" relative="1" as="geometry">
            <mxPoint as="offset" />
          </mxGeometry>
        </mxCell>
        <mxCell id="mG5YyNLUCqAut8_NGiAm-8" value="Check If&amp;nbsp;&lt;span style=&quot;background-color: transparent; color: light-dark(rgb(0, 0, 0), rgb(255, 255, 255));&quot;&gt;Country &lt;/span&gt;&lt;span style=&quot;background-color: transparent; color: light-dark(rgb(0, 0, 0), rgb(255, 255, 255));&quot;&gt;Column&amp;nbsp;&lt;/span&gt;&lt;div&gt;&lt;span style=&quot;background-color: transparent; color: light-dark(rgb(0, 0, 0), rgb(255, 255, 255));&quot;&gt;Exists&lt;/span&gt;&lt;/div&gt;" style="rhombus;whiteSpace=wrap;html=1;" vertex="1" parent="WIyWlLk6GJQsqaUBKTNV-1">
          <mxGeometry x="480" y="410" width="80" height="80" as="geometry" />
        </mxCell>
        <mxCell id="mG5YyNLUCqAut8_NGiAm-13" value="" style="edgeStyle=orthogonalEdgeStyle;rounded=0;orthogonalLoop=1;jettySize=auto;html=1;" edge="1" parent="WIyWlLk6GJQsqaUBKTNV-1" source="mG5YyNLUCqAut8_NGiAm-10" target="mG5YyNLUCqAut8_NGiAm-12">
          <mxGeometry relative="1" as="geometry" />
        </mxCell>
        <mxCell id="mG5YyNLUCqAut8_NGiAm-10" value="Extract Top 3 Countries From Datasets" style="rounded=0;whiteSpace=wrap;html=1;" vertex="1" parent="WIyWlLk6GJQsqaUBKTNV-1">
          <mxGeometry x="610" y="420" width="120" height="60" as="geometry" />
        </mxCell>
        <mxCell id="C3z-Kls5U324keOWxkMt-7" value="" style="edgeStyle=orthogonalEdgeStyle;rounded=0;orthogonalLoop=1;jettySize=auto;html=1;" edge="1" parent="WIyWlLk6GJQsqaUBKTNV-1" source="mG5YyNLUCqAut8_NGiAm-12" target="C3z-Kls5U324keOWxkMt-6">
          <mxGeometry relative="1" as="geometry" />
        </mxCell>
        <mxCell id="mG5YyNLUCqAut8_NGiAm-12" value="Update Counter() With Extracted Countries" style="rounded=0;whiteSpace=wrap;html=1;" vertex="1" parent="WIyWlLk6GJQsqaUBKTNV-1">
          <mxGeometry x="610" y="520" width="120" height="60" as="geometry" />
        </mxCell>
        <mxCell id="mG5YyNLUCqAut8_NGiAm-26" value="&lt;p&gt;End&lt;/p&gt;" style="ellipse;whiteSpace=wrap;html=1;" vertex="1" parent="WIyWlLk6GJQsqaUBKTNV-1">
          <mxGeometry x="180" y="215" width="120" height="70" as="geometry" />
        </mxCell>
        <mxCell id="C3z-Kls5U324keOWxkMt-4" value="" style="edgeStyle=orthogonalEdgeStyle;rounded=0;orthogonalLoop=1;jettySize=auto;html=1;" edge="1" parent="WIyWlLk6GJQsqaUBKTNV-1" source="C3z-Kls5U324keOWxkMt-0" target="C3z-Kls5U324keOWxkMt-2">
          <mxGeometry relative="1" as="geometry" />
        </mxCell>
        <mxCell id="C3z-Kls5U324keOWxkMt-0" value="find_top_countries()" style="rounded=0;whiteSpace=wrap;html=1;" vertex="1" parent="WIyWlLk6GJQsqaUBKTNV-1">
          <mxGeometry x="39.96" y="320" width="120" height="60" as="geometry" />
        </mxCell>
        <mxCell id="C3z-Kls5U324keOWxkMt-5" value="" style="edgeStyle=orthogonalEdgeStyle;rounded=0;orthogonalLoop=1;jettySize=auto;html=1;" edge="1" parent="WIyWlLk6GJQsqaUBKTNV-1" source="C3z-Kls5U324keOWxkMt-2" target="ebi25rhOZYfi02CDMm35-2">
          <mxGeometry relative="1" as="geometry" />
        </mxCell>
        <mxCell id="C3z-Kls5U324keOWxkMt-2" value="Initialise Counter()&amp;nbsp;&lt;div&gt;to Track Country&lt;/div&gt;&lt;div&gt;Appearances&lt;/div&gt;" style="rounded=0;whiteSpace=wrap;html=1;" vertex="1" parent="WIyWlLk6GJQsqaUBKTNV-1">
          <mxGeometry x="39.96" y="420" width="120" height="60" as="geometry" />
        </mxCell>
        <mxCell id="C3z-Kls5U324keOWxkMt-9" style="edgeStyle=orthogonalEdgeStyle;rounded=0;orthogonalLoop=1;jettySize=auto;html=1;entryX=0.5;entryY=1;entryDx=0;entryDy=0;" edge="1" parent="WIyWlLk6GJQsqaUBKTNV-1" source="C3z-Kls5U324keOWxkMt-6" target="ebi25rhOZYfi02CDMm35-2">
          <mxGeometry relative="1" as="geometry" />
        </mxCell>
        <mxCell id="C3z-Kls5U324keOWxkMt-6" value="Retrieve Top 3 Most Frequently Appearing Countries" style="rounded=0;whiteSpace=wrap;html=1;" vertex="1" parent="WIyWlLk6GJQsqaUBKTNV-1">
          <mxGeometry x="450" y="520" width="120" height="60" as="geometry" />
        </mxCell>
        <mxCell id="C3z-Kls5U324keOWxkMt-8" value="Print Results" style="shape=parallelogram;perimeter=parallelogramPerimeter;whiteSpace=wrap;html=1;fixedSize=1;" vertex="1" parent="WIyWlLk6GJQsqaUBKTNV-1">
          <mxGeometry x="180" y="320" width="120" height="60" as="geometry" />
        </mxCell>
      </root>
    </mxGraphModel>
  </diagram>
</mxfile>
